<svg width="24" height="22" viewBox="0 0 24 22" fill="none" xmlns="http://www.w3.org/2000/svg">
<g filter="url(#filter0_d_131_166)">
<path d="M20.34 7.32013L6.34 0.320128C5.78749 0.0451374 5.16362 -0.0527612 4.55344 0.03978C3.94326 0.132321 3.37646 0.410798 2.93033 0.837244C2.48421 1.26369 2.18046 1.81735 2.0605 2.42274C1.94054 3.02813 2.0102 3.65578 2.26 4.22013L4.66 9.59013C4.71446 9.71996 4.74251 9.85934 4.74251 10.0001C4.74251 10.1409 4.71446 10.2803 4.66 10.4101L2.26 15.7801C2.0567 16.2368 1.97076 16.7371 2.00998 17.2355C2.0492 17.7339 2.21235 18.2145 2.48459 18.6338C2.75682 19.0531 3.12953 19.3977 3.56883 19.6363C4.00812 19.875 4.50009 20 5 20.0001C5.46823 19.9955 5.92949 19.8861 6.35 19.6801L20.35 12.6801C20.8466 12.4303 21.264 12.0474 21.5557 11.5742C21.8474 11.101 22.0018 10.556 22.0018 10.0001C22.0018 9.44424 21.8474 8.89928 21.5557 8.42605C21.264 7.95282 20.8466 7.56994 20.35 7.32013H20.34ZM19.45 10.8901L5.45 17.8901C5.26617 17.9784 5.05973 18.0084 4.85839 17.976C4.65705 17.9436 4.47041 17.8504 4.32352 17.709C4.17662 17.5675 4.07648 17.3845 4.03653 17.1846C3.99658 16.9846 4.01873 16.7772 4.1 16.5901L6.49 11.2201C6.52094 11.1484 6.54766 11.075 6.57 11.0001H13.46C13.7252 11.0001 13.9796 10.8948 14.1671 10.7072C14.3546 10.5197 14.46 10.2653 14.46 10.0001C14.46 9.73491 14.3546 9.48056 14.1671 9.29302C13.9796 9.10549 13.7252 9.00013 13.46 9.00013H6.57C6.54766 8.9253 6.52094 8.85184 6.49 8.78013L4.1 3.41013C4.01873 3.22309 3.99658 3.01568 4.03653 2.8157C4.07648 2.61572 4.17662 2.43273 4.32352 2.29128C4.47041 2.14982 4.65705 2.05666 4.85839 2.02428C5.05973 1.9919 5.26617 2.02186 5.45 2.11013L19.45 9.11013C19.6138 9.19405 19.7513 9.32154 19.8473 9.47857C19.9433 9.63561 19.994 9.81608 19.994 10.0001C19.994 10.1842 19.9433 10.3647 19.8473 10.5217C19.7513 10.6787 19.6138 10.8062 19.45 10.8901Z" fill="white"/>
</g>
<defs>
<filter id="filter0_d_131_166" x="-1.99927" y="0.00585938" width="28.0011" height="27.9941" filterUnits="userSpaceOnUse" color-interpolation-filters="sRGB">
<feFlood flood-opacity="0" result="BackgroundImageFix"/>
<feColorMatrix in="SourceAlpha" type="matrix" values="0 0 0 0 0 0 0 0 0 0 0 0 0 0 0 0 0 0 127 0" result="hardAlpha"/>
<feOffset dy="4"/>
<feGaussianBlur stdDeviation="2"/>
<feComposite in2="hardAlpha" operator="out"/>
<feColorMatrix type="matrix" values="0 0 0 0 0 0 0 0 0 0 0 0 0 0 0 0 0 0 0.25 0"/>
<feBlend mode="normal" in2="BackgroundImageFix" result="effect1_dropShadow_131_166"/>
<feBlend mode="normal" in="SourceGraphic" in2="effect1_dropShadow_131_166" result="shape"/>
</filter>
</defs>
</svg>
