<svg width="26" height="25" viewBox="0 0 26 25" fill="none" xmlns="http://www.w3.org/2000/svg">
<path d="M5.9023 24.9995V8.13132H0.328746V24.9995H5.90278H5.9023ZM3.11649 5.82866C5.05974 5.82866 6.26952 4.5333 6.26952 2.91458C6.23299 1.25911 5.05973 0 3.1535 0C1.24581 0 0 1.25911 0 2.91458C0 4.5333 1.20929 5.82866 3.07996 5.82866H3.116H3.11649ZM8.98713 24.9995H14.5602V15.5807C14.5602 15.077 14.5967 14.5724 14.7438 14.2128C15.1466 13.205 16.0637 12.162 17.6036 12.162C19.6199 12.162 20.4269 13.7087 20.4269 15.9765V24.9995H26V15.3279C26 10.1469 23.2507 7.73595 19.5839 7.73595C16.5775 7.73595 15.2571 9.4262 14.5237 10.5775H14.5607V8.13181H8.98762C9.06018 9.71427 8.98713 25 8.98713 25V24.9995Z" fill="white"/>
</svg>
