<svg width="148" height="50" viewBox="0 0 148 50" fill="none" xmlns="http://www.w3.org/2000/svg">
<g filter="url(#filter0_d_135_862)">
<path d="M24.9948 0C13.3999 0 4 9.40195 4 20.9996C4 32.5985 13.3999 42 24.9948 42C36.5901 42 45.9895 32.5985 45.9895 20.9996C45.9895 9.4027 36.5906 0.0010023 24.9945 0.0010023L24.9948 0V0ZM34.6228 30.2875C34.2458 30.9061 33.44 31.1 32.8235 30.7231C27.8934 27.7091 21.6879 27.0283 14.3799 28.6981C13.6757 28.8596 12.9737 28.418 12.8133 27.7139C12.6521 27.0095 13.0915 26.3073 13.7975 26.1468C21.795 24.318 28.655 25.1052 34.1888 28.4875C34.8056 28.8662 35.0011 29.6711 34.6226 30.288L34.6228 30.2875V30.2875ZM37.1925 24.5703C36.7177 25.3409 35.7104 25.5826 34.941 25.1094C29.2988 21.6403 20.6954 20.6355 14.0204 22.6622C13.1547 22.9238 12.2404 22.4358 11.9777 21.5714C11.7169 20.7055 12.2051 19.7927 13.0692 19.5294C20.6939 17.2153 30.1725 18.3362 36.6533 22.3197C37.4229 22.7936 37.6661 23.8017 37.1923 24.5705L37.1925 24.5703ZM37.4131 18.6161C30.6456 14.5961 19.4827 14.2264 13.0223 16.1877C11.9849 16.5024 10.8878 15.9166 10.5735 14.8789C10.2591 13.8408 10.8442 12.7442 11.8824 12.4287C19.2985 10.1768 31.6269 10.6119 39.4173 15.2378C40.3504 15.7917 40.6565 16.9971 40.1034 17.9292C39.5519 18.8626 38.3435 19.1703 37.4134 18.6161H37.4131V18.6161ZM61.1198 19.3864C57.4948 18.5218 56.8495 17.915 56.8495 16.6398C56.8495 15.4351 57.9835 14.6244 59.6697 14.6244C61.3043 14.6244 62.9251 15.24 64.6244 16.5074C64.6758 16.5458 64.7402 16.5611 64.8036 16.551C64.8671 16.5415 64.9232 16.5067 64.9603 16.4542L66.7303 13.9586C66.803 13.8558 66.7832 13.7141 66.6852 13.6356C64.6627 12.0124 62.3853 11.2233 59.7234 11.2233C55.8094 11.2233 53.0754 13.5727 53.0754 16.9342C53.0754 20.539 55.4338 21.8154 59.5093 22.8006C62.978 23.5998 63.5634 24.2694 63.5634 25.4663C63.5634 26.7926 62.3796 27.6171 60.4745 27.6171C58.3586 27.6171 56.6327 26.9042 54.702 25.2318C54.6541 25.1904 54.5884 25.1716 54.5278 25.1751C54.4638 25.1804 54.4054 25.21 54.3648 25.2589L52.3802 27.6214C52.297 27.7194 52.3075 27.8658 52.4038 27.9506C54.6501 29.9565 57.4129 31.016 60.3943 31.016C64.6119 31.016 67.3373 28.7109 67.3373 25.1433C67.3448 22.1316 65.5423 20.464 61.1273 19.3897L61.1198 19.3864V19.3864ZM76.8791 15.8105C75.0509 15.8105 73.5515 16.5307 72.315 18.0065V16.3454C72.315 16.2143 72.2087 16.1074 72.0778 16.1074H68.832C68.7008 16.1074 68.5948 16.2143 68.5948 16.3454V34.8023C68.5948 34.9334 68.7008 35.0402 68.832 35.0402H72.0778C72.2087 35.0402 72.315 34.9334 72.315 34.8023V28.9762C73.5517 30.3645 75.0514 31.0428 76.8791 31.0428C80.2759 31.0428 83.7145 28.4273 83.7145 23.4275C83.7196 18.4265 80.2799 15.8103 76.8828 15.8103L76.8791 15.8105ZM79.9402 23.4275C79.9402 25.9736 78.3723 27.7502 76.1272 27.7502C73.9077 27.7502 72.2335 25.8928 72.2335 23.4275C72.2335 20.9625 73.9077 19.1048 76.1272 19.1048C78.3359 19.1046 79.9404 20.9221 79.9404 23.4273L79.9402 23.4275V23.4275ZM92.5281 15.8105C88.1535 15.8105 84.7264 19.1798 84.7264 23.4819C84.7264 27.7372 88.13 31.0711 92.4744 31.0711C96.8645 31.0711 100.302 27.7131 100.302 23.4275C100.302 19.1567 96.8876 15.811 92.5278 15.811L92.5281 15.8105V15.8105ZM92.5281 27.7756C90.2013 27.7756 88.4471 25.9056 88.4471 23.4263C88.4471 20.9364 90.1406 19.1296 92.4744 19.1296C94.8162 19.1296 96.5822 20.9996 96.5822 23.4807C96.5822 25.97 94.8774 27.7756 92.5283 27.7756H92.5281V27.7756ZM109.644 16.1074H106.072V12.4548C106.072 12.3239 105.966 12.2171 105.835 12.2171H102.59C102.458 12.2171 102.352 12.3239 102.352 12.4548V16.1074H100.791C100.66 16.1074 100.555 16.2143 100.555 16.3454V19.1357C100.555 19.2666 100.66 19.3737 100.791 19.3737H102.352V26.5935C102.352 29.5111 103.803 30.9904 106.667 30.9904C107.831 30.9904 108.797 30.7499 109.707 30.2336C109.781 30.1922 109.827 30.1125 109.827 30.0277V27.3706C109.827 27.2886 109.785 27.2111 109.714 27.1682C109.644 27.1238 109.556 27.1216 109.483 27.1574C108.858 27.4722 108.253 27.6173 107.578 27.6173C106.536 27.6173 106.072 27.1444 106.072 26.0844V19.3749H109.644C109.775 19.3749 109.88 19.2681 109.88 19.137V16.3469C109.885 16.2158 109.78 16.109 109.647 16.109L109.644 16.1074V16.1074ZM122.089 16.1217V15.6731C122.089 14.3533 122.595 13.7648 123.729 13.7648C124.406 13.7648 124.949 13.8992 125.558 14.1023C125.633 14.1259 125.711 14.1141 125.772 14.0692C125.835 14.0243 125.87 13.9523 125.87 13.8761V11.1403C125.87 11.0357 125.803 10.9432 125.702 10.9123C125.059 10.721 124.236 10.5246 123.004 10.5246C120.007 10.5246 118.422 12.2133 118.422 15.4063V16.0934H116.862C116.732 16.0934 116.624 16.2002 116.624 16.3311V19.1357C116.624 19.2666 116.732 19.3736 116.862 19.3736H118.422V30.5099C118.422 30.641 118.528 30.7479 118.659 30.7479H121.904C122.036 30.7479 122.142 30.641 122.142 30.5099V19.3744H125.173L129.815 30.5079C129.288 31.6777 128.77 31.9104 128.062 31.9104C127.491 31.9104 126.888 31.7397 126.273 31.4026C126.215 31.3708 126.146 31.3655 126.084 31.3848C126.022 31.4066 125.97 31.4528 125.943 31.513L124.843 33.9271C124.791 34.0412 124.836 34.1751 124.945 34.2343C126.094 34.8564 127.131 35.122 128.412 35.122C130.809 35.122 132.133 34.0053 133.301 31.0011L138.932 16.4467C138.961 16.3735 138.952 16.2907 138.907 16.2258C138.863 16.1613 138.791 16.1225 138.712 16.1225H135.333C135.232 16.1225 135.141 16.1869 135.108 16.282L131.647 26.1717L127.855 16.2754C127.821 16.1834 127.732 16.1225 127.634 16.1225H122.088L122.089 16.1217V16.1217ZM114.873 16.1074H111.627C111.496 16.1074 111.39 16.2143 111.39 16.3454V30.5099C111.39 30.641 111.496 30.7479 111.627 30.7479H114.873C115.004 30.7479 115.111 30.641 115.111 30.5099V16.3464C115.111 16.3151 115.105 16.2841 115.093 16.2552C115.081 16.2263 115.064 16.2 115.042 16.1779C115.02 16.1558 114.993 16.1382 114.964 16.1263C114.935 16.1144 114.904 16.1083 114.873 16.1084L114.873 16.1074ZM113.269 9.658C111.983 9.658 110.94 10.6992 110.94 11.9853C110.94 13.2723 111.983 14.3147 113.269 14.3147C114.554 14.3147 115.597 13.2723 115.597 11.9853C115.597 10.6994 114.554 9.658 113.27 9.658H113.269V9.658ZM141.704 20.6616C140.419 20.6616 139.42 19.6297 139.42 18.3766C139.42 17.1235 140.432 16.0798 141.716 16.0798C143 16.0798 144 17.1115 144 18.3636C144 19.6167 142.987 20.6616 141.704 20.6616H141.704V20.6616ZM141.716 16.307C140.546 16.307 139.661 17.2374 139.661 18.3766C139.661 19.5153 140.54 20.4331 141.705 20.4331C142.874 20.4331 143.761 19.5036 143.761 18.3636C143.761 17.2248 142.881 16.307 141.717 16.307H141.716V16.307ZM142.223 18.5985L142.869 19.5033H142.324L141.742 18.6733H141.242V19.5033H140.786V17.105H141.855C142.413 17.105 142.779 17.3901 142.779 17.8701C142.781 18.2633 142.553 18.5035 142.225 18.5985H142.223V18.5985ZM141.837 17.5165H141.242V18.2751H141.837C142.134 18.2751 142.311 18.1299 142.311 17.8954C142.311 17.6487 142.133 17.5165 141.837 17.5165H141.837V17.5165Z" fill="#B8BCC2"/>
</g>
<defs>
<filter id="filter0_d_135_862" x="0" y="0" width="148" height="50" filterUnits="userSpaceOnUse" color-interpolation-filters="sRGB">
<feFlood flood-opacity="0" result="BackgroundImageFix"/>
<feColorMatrix in="SourceAlpha" type="matrix" values="0 0 0 0 0 0 0 0 0 0 0 0 0 0 0 0 0 0 127 0" result="hardAlpha"/>
<feOffset dy="4"/>
<feGaussianBlur stdDeviation="2"/>
<feComposite in2="hardAlpha" operator="out"/>
<feColorMatrix type="matrix" values="0 0 0 0 0 0 0 0 0 0 0 0 0 0 0 0 0 0 0.25 0"/>
<feBlend mode="normal" in2="BackgroundImageFix" result="effect1_dropShadow_135_862"/>
<feBlend mode="normal" in="SourceGraphic" in2="effect1_dropShadow_135_862" result="shape"/>
</filter>
</defs>
</svg>
