<svg width="470.000000" height="470.000000" viewBox="0 0 470 470" fill="none" xmlns="http://www.w3.org/2000/svg" xmlns:xlink="http://www.w3.org/1999/xlink">
	<desc>
			Created with Pixso.
	</desc>
	<defs>
		<filter id="filter_90_251_dd" x="0.000000" y="0.000000" width="470.000000" height="470.000000" filterUnits="userSpaceOnUse" color-interpolation-filters="sRGB">
			<feFlood flood-opacity="0" result="BackgroundImageFix"/>
			<feGaussianBlur in="BackgroundImage" stdDeviation="4"/>
			<feComposite in2="SourceAlpha" operator="in" result="effect_backgroundBlur_1"/>
			<feBlend mode="normal" in="SourceGraphic" in2="effect_backgroundBlur_1" result="shape"/>
		</filter>
		<filter id="filter_90_253_dd" x="192.937622" y="180.875244" width="101.569336" height="109.270752" filterUnits="userSpaceOnUse" color-interpolation-filters="sRGB">
			<feFlood flood-opacity="0" result="BackgroundImageFix"/>
			<feGaussianBlur in="BackgroundImage" stdDeviation="4"/>
			<feComposite in2="SourceAlpha" operator="in" result="effect_backgroundBlur_1"/>
			<feBlend mode="normal" in="SourceGraphic" in2="effect_backgroundBlur_1" result="shape"/>
		</filter>
		<clipPath id="clip90_252">
			<rect id="Icon" rx="-0.500000" width="158.422638" height="158.422638" transform="translate(163.545898 156.299438)" fill="white" fill-opacity="0"/>
		</clipPath>
		<linearGradient x1="235.000000" y1="0.000000" x2="235.000000" y2="470.000000" id="paint_linear_90_251_0" gradientUnits="userSpaceOnUse">
			<stop stop-color="#FFFFFF" stop-opacity="0.501961"/>
			<stop offset="1.000000" stop-color="#FFFFFF"/>
		</linearGradient>
		<linearGradient x1="235.000000" y1="0.000000" x2="235.000000" y2="470.000000" id="paint_linear_90_251_1" gradientUnits="userSpaceOnUse">
			<stop stop-color="#FFFFFF" stop-opacity="0.000000"/>
			<stop offset="1.000000" stop-color="#FFFFFF"/>
		</linearGradient>
		<linearGradient x1="243.722321" y1="180.875244" x2="243.722321" y2="290.146057" id="paint_linear_90_253_0" gradientUnits="userSpaceOnUse">
			<stop offset="0.147231" stop-color="#FFFFFF"/>
			<stop offset="0.427610" stop-color="#FFFFFF" stop-opacity="0.501961"/>
			<stop offset="1.000000" stop-color="#1600FD" stop-opacity="0.000000"/>
		</linearGradient>
		<linearGradient x1="243.722321" y1="180.875244" x2="243.722321" y2="290.146057" id="paint_linear_90_253_1" gradientUnits="userSpaceOnUse">
			<stop stop-color="#FFFFFF" stop-opacity="0.000000"/>
			<stop offset="1.000000" stop-color="#FFFFFF"/>
		</linearGradient>
	</defs>
	<rect id="Abstract Design" rx="-0.216197" width="469.567596" height="469.567596" transform="translate(0.216197 0.216197)" fill="#FFFFFF" fill-opacity="0"/>
	<g filter="url(#filter_90_251_dd)">
		<path id="Vector" d="M389.97 188.65C386.68 85.63 303.2 2.5 199.84 0C197.17 0 194.98 2.03 194.98 4.69L194.82 73.89C194.82 77.34 192.16 80 188.72 80.15C85.66 83.29 2.5 166.89 0 270.22C0 272.88 2.03 275.07 4.69 275.07L73.76 275.23C77.21 275.23 79.87 277.89 80.03 281.34C83.31 384.36 166.95 467.49 270.16 470C272.82 470 275.01 467.96 275.01 465.3L275.17 396.1C275.17 392.65 277.83 389.99 281.28 389.84C384.33 386.55 467.49 302.94 470 199.77C470 197.11 467.96 194.92 465.3 194.92L396.23 194.76C392.78 194.76 390.12 192.1 389.97 188.65ZM268.28 389.37C209.7 385.92 162.72 338.33 160.53 279.46C160.37 276.95 158.33 274.92 155.83 274.92L86.92 274.76C83.31 274.76 80.49 271.79 80.65 268.19C84.1 209.63 131.71 162.66 190.6 160.47C193.1 160.32 195.14 158.28 195.14 155.77L195.29 86.73C195.29 83.13 198.27 80.31 201.87 80.47C260.45 83.91 307.43 131.51 309.62 190.38C309.78 192.88 311.81 194.92 314.32 194.92L383.23 195.07C386.83 195.07 389.65 198.05 389.5 201.65C386.05 261.77 336.09 309.52 275.17 309.52L275.01 383.1C274.85 386.7 271.88 389.52 268.28 389.37Z" fill="url(#paint_linear_90_251_0)" fill-opacity="0.300000" fill-rule="nonzero"/>
		<path id="Vector" d="M199.83 1Q198.92 1 198.17 1.34Q197.59 1.6 197.1 2.07Q196.55 2.6 196.27 3.25Q195.98 3.91 195.98 4.69L195.82 73.89Q195.82 75.48 195.24 76.81Q194.73 77.98 193.78 78.96Q192.89 79.85 191.83 80.39Q190.45 81.08 188.76 81.15Q168.58 81.77 149.37 86.39Q132.57 90.44 116.51 97.56Q101.13 104.37 87.35 113.58Q71.27 124.32 57.36 138.32Q43.54 152.23 32.94 168.28Q23.73 182.22 16.96 197.77Q9.99 213.79 6.05 230.52Q1.49 249.9 1 270.23Q1 271.14 1.34 271.89Q1.6 272.47 2.07 272.96Q2.6 273.51 3.24 273.79Q3.91 274.07 4.69 274.07L73.76 274.23Q75.35 274.23 76.69 274.81Q77.85 275.32 78.83 276.28Q79.72 277.16 80.26 278.23Q80.95 279.6 81.02 281.29Q81.66 301.35 86.27 320.45Q90.34 337.36 97.52 353.52Q104.35 368.89 113.57 382.67Q124.32 398.75 138.32 412.65Q152.34 426.57 168.52 437.21Q182.35 446.32 197.77 453.03Q213.95 460.08 230.86 464.03Q250.05 468.51 270.17 469Q272.17 468.99 273.13 467.99Q274.01 467.07 274.01 465.3L274.17 396.1Q274.17 394.51 274.75 393.18Q275.26 392.01 276.22 391.03Q277.1 390.14 278.16 389.61Q279.54 388.91 281.23 388.84Q301.33 388.2 320.47 383.58Q337.35 379.51 353.48 372.35Q368.93 365.49 382.77 356.22Q398.78 345.5 412.63 331.56Q426.59 317.5 437.26 301.29Q446.33 287.49 453.03 272.13Q460.07 255.96 464.02 239.07Q468.51 219.88 469 199.76Q468.99 198.85 468.65 198.11Q468.39 197.52 467.92 197.04Q467.39 196.48 466.75 196.2Q466.08 195.92 465.3 195.92L396.23 195.76Q394.64 195.76 393.3 195.18Q392.14 194.67 391.16 193.71Q390.27 192.83 389.73 191.77Q389.04 190.39 388.97 188.7Q388.32 168.45 383.64 149.17Q379.58 132.45 372.49 116.47Q365.61 100.96 356.3 87.08Q345.61 71.14 331.72 57.34Q317.79 43.5 301.72 32.89Q287.81 23.71 272.29 16.96Q256.38 10.04 239.77 6.1Q220.28 1.49 199.83 1ZM470 199.77C470 197.11 467.96 194.92 465.3 194.92L396.23 194.76C392.78 194.76 390.12 192.1 389.97 188.65C386.68 85.63 303.2 2.5 199.84 0C197.17 0 194.98 2.03 194.98 4.69L194.82 73.89C194.82 77.34 192.16 80 188.72 80.15C85.66 83.29 2.5 166.89 0 270.22C0 272.88 2.03 275.07 4.69 275.07L73.76 275.23C77.21 275.23 79.87 277.89 80.03 281.34C83.31 384.36 166.95 467.49 270.16 470C272.82 470 275.01 467.96 275.01 465.3L275.17 396.1C275.17 392.65 277.83 389.99 281.28 389.84C384.33 386.55 467.49 302.94 470 199.77ZM158.41 276.75Q159.41 277.64 159.53 279.51Q159.96 291.04 162.6 302.04Q164.97 311.93 169.13 321.39Q173 330.17 178.19 338.1Q184.41 347.62 192.54 355.9Q200.45 363.95 209.58 370.23Q217.63 375.77 226.62 379.93Q236.05 384.29 245.95 386.87Q256.81 389.69 268.23 390.36Q269.79 390.43 271.14 389.93Q272.48 389.43 273.62 388.37Q274.7 387.36 275.3 386.11Q275.94 384.76 276.01 383.15L276.01 383.13L276.16 310.51Q288.09 310.42 299.5 307.96Q309.25 305.86 318.63 302.04Q327.95 298.25 336.35 292.99Q346.08 286.9 354.57 278.85Q363 270.87 369.57 261.58Q375.32 253.44 379.65 244.29Q384.18 234.73 386.85 224.68Q389.82 213.49 390.49 201.69Q390.57 200.07 390.03 198.69Q389.52 197.4 388.5 196.32Q387.45 195.22 386.17 194.66Q384.83 194.07 383.23 194.07L314.32 193.92Q312.65 193.92 311.73 193.09Q310.74 192.19 310.62 190.32Q310.19 178.78 307.54 167.76Q305.17 157.89 301.01 148.45Q297.15 139.66 291.97 131.74Q285.74 122.22 277.6 113.94Q269.7 105.89 260.58 99.61Q252.53 94.07 243.53 89.91Q234.09 85.54 224.18 82.96Q213.33 80.14 201.91 79.47Q200.29 79.4 198.91 79.94Q197.62 80.44 196.54 81.47Q195.44 82.51 194.88 83.79Q194.29 85.13 194.29 86.73L194.14 155.78Q194.14 157.44 193.31 158.36Q192.41 159.35 190.55 159.47Q178.98 159.9 167.95 162.56Q158.09 164.93 148.66 169.08Q139.83 172.96 131.88 178.16Q122.39 184.38 114.13 192.48Q106.06 200.41 99.76 209.56Q94.25 217.58 90.1 226.54Q85.72 236 83.14 245.92Q80.32 256.75 79.65 268.14Q79.58 269.76 80.12 271.15Q80.62 272.43 81.65 273.51Q82.69 274.61 83.97 275.17Q85.31 275.76 86.91 275.76L155.83 275.92Q157.49 275.92 158.41 276.75ZM190.6 160.47C131.71 162.66 84.1 209.63 80.65 268.19C80.49 271.79 83.31 274.76 86.92 274.76L155.83 274.92C158.33 274.92 160.37 276.95 160.53 279.46C162.72 338.33 209.7 385.92 268.28 389.37C271.88 389.52 274.85 386.7 275.01 383.1L275.17 309.52C336.09 309.52 386.05 261.77 389.5 201.65C389.65 198.05 386.83 195.07 383.23 195.07L314.32 194.92C311.81 194.92 309.78 192.88 309.62 190.38C307.43 131.51 260.45 83.91 201.87 80.47C198.27 80.31 195.29 83.13 195.29 86.73L195.14 155.77C195.14 158.28 193.1 160.32 190.6 160.47Z" fill="url(#paint_linear_90_251_1)" fill-opacity="0.500000" fill-rule="evenodd"/>
	</g>
	<g clip-path="url(#clip90_252)">
		<g filter="url(#filter_90_253_dd)">
			<path id="Rectangle 511 (Stroke)" d="M192.93 193.34C192.93 183.87 203.09 177.86 211.39 182.43L288.05 224.59C296.65 229.32 296.65 241.69 288.05 246.42L211.39 288.58C203.09 293.15 192.93 287.14 192.93 277.67L192.93 193.34Z" fill="url(#paint_linear_90_253_0)" fill-opacity="0.300000" fill-rule="evenodd"/>
			<path id="Rectangle 511 (Stroke)" d="M192.93 193.34C192.93 183.87 203.09 177.86 211.39 182.43L288.05 224.59C296.65 229.32 296.65 241.69 288.05 246.42L211.39 288.58C203.09 293.15 192.93 287.14 192.93 277.67L192.93 193.34ZM193.93 277.67L193.93 193.34Q193.93 190.08 195.34 187.61Q196.75 185.15 199.56 183.48Q202.37 181.82 205.21 181.78Q208.05 181.73 210.91 183.31L287.57 225.47Q290.54 227.1 292.02 229.61Q293.5 232.12 293.5 235.51Q293.5 238.89 292.02 241.4Q290.54 243.91 287.57 245.54L210.91 287.71Q208.05 289.28 205.21 289.24Q202.37 289.19 199.56 287.53Q196.75 285.87 195.34 283.4Q193.93 280.94 193.93 277.67Z" fill="url(#paint_linear_90_253_1)" fill-opacity="0.500000" fill-rule="evenodd"/>
		</g>
	</g>
</svg>
