<svg width="75" height="17" viewBox="0 0 75 17" fill="none" xmlns="http://www.w3.org/2000/svg">
<path d="M68.2652 13.0607C68.2652 13.0607 67.9084 13.6816 68.3467 13.8203C68.3467 13.8203 68.8419 14.0136 69.4595 13.4405C69.4595 13.4405 73.9632 9.50623 74.0717 2.34332C74.0717 2.34332 74.1049 1.44869 73.7459 1.204C73.7459 1.204 72.3349 -0.0441938 67.2613 0.33558C67.2613 0.33558 62.8388 0.634157 60.4243 2.77771C60.4243 2.77771 60.2073 2.96742 60.2073 3.21138C60.2073 3.21138 60.1552 3.73826 61.4824 3.50995C61.4824 3.50995 65.9046 2.88549 68.5365 3.21138C68.5365 3.21138 69.8935 3.37414 70.2733 3.83584C70.2733 3.83584 70.8974 4.35143 70.5715 6.06023C70.5715 6.06096 69.6758 10.402 68.2652 13.0607Z" fill="#B8BCC2"/>
<path d="M67.3736 6.18853C67.3736 6.18853 68.0342 7.0442 66.9684 7.78226C66.9684 7.78226 55.5835 16.8888 36.4674 16.8888C36.4674 16.8888 16.7897 17.8596 0.358914 2.93077C0.358914 2.93077 -0.21712 2.42502 0.140444 1.95494C0.140444 1.95494 0.460138 1.52237 1.28778 1.99281C1.28778 1.99281 16.7442 11.6241 37.0437 11.6241C37.0437 11.6241 51.1533 12.1702 65.627 5.98025C65.627 5.98025 66.7801 5.38274 67.3736 6.18853Z" fill="#B8BCC2"/>
</svg>
