<svg width="21" height="23" viewBox="0 0 21 23" fill="none" xmlns="http://www.w3.org/2000/svg">
<path d="M3.55115 2.80621C6.3617 0.156155 10.6946 -0.742968 14.3015 0.65304C17.721 1.9544 19.8992 5.2433 21 8.62685C15.9176 10.7564 10.8586 12.8622 5.77617 14.9917C6.47881 16.3404 7.55618 17.5708 9.0083 18.0677C11.046 18.8012 13.4818 18.5409 15.1915 17.1685C15.8707 16.648 16.4094 15.9618 16.9247 15.2993C18.2129 16.1748 19.501 17.0266 20.7892 17.902C18.9623 20.6704 15.8942 22.6106 12.5918 22.9182C8.93804 23.3678 5.05011 21.9481 2.68456 19.0614C-1.20338 14.5185 -0.828633 6.89959 3.55115 2.80621ZM6.05723 7.18352C5.2609 8.34292 4.933 9.76259 4.95642 11.1586C8.35251 9.73893 11.7486 8.31926 15.1447 6.87593C14.5826 5.5509 13.2241 4.74642 11.8423 4.53347C9.61726 4.13123 7.29855 5.33795 6.05723 7.18352Z" fill="#B8BCC2"/>
</svg>
