<svg width="22" height="33" viewBox="0 0 22 33" fill="none" xmlns="http://www.w3.org/2000/svg">
<path d="M5.53639 1.57037C8.25277 -0.117811 11.8667 -0.58675 14.7957 0.866963C15.7169 1.26556 16.4728 1.94552 17.205 2.62549C17.2286 1.99242 17.205 1.3359 17.2286 0.679387C18.8112 0.702834 20.3938 0.679386 22 0.702833V21.3831C21.9764 24.5015 21.1733 27.8075 18.9057 30.0819C16.4255 32.5907 12.6226 33.3645 9.1976 32.8486C5.53639 32.3094 2.3476 29.6599 0.930364 26.3069C2.3476 25.627 3.83571 25.0877 5.30019 24.4546C6.12691 26.3773 7.80398 28.0186 9.90622 28.3937C12.0085 28.7689 14.4414 28.253 15.8114 26.518C17.2759 24.736 17.2759 22.2975 17.205 20.1169C16.1185 21.1721 14.8666 22.1099 13.3548 22.4616C10.0716 23.3761 6.4576 22.2506 3.93019 20.0466C1.37916 17.8426 -0.132564 14.4428 0.00915975 11.0664C0.0800217 7.24454 2.25312 3.56337 5.53639 1.57037ZM10.4259 4.57159C8.98501 4.80606 7.63863 5.60325 6.71743 6.70526C4.49708 9.33132 4.49709 13.5283 6.74105 16.1075C8.01656 17.6316 10.0716 18.4756 12.0557 18.2646C13.9217 18.077 15.646 16.9047 16.5672 15.2869C18.1262 12.5436 17.8664 8.81549 15.7641 6.4239C14.465 4.94674 12.3864 4.21988 10.4259 4.57159Z" fill="#B8BCC2"/>
</svg>
