<svg width="35" height="35" viewBox="0 0 35 35" fill="none" xmlns="http://www.w3.org/2000/svg">
<path d="M17.4787 0H18.7408C23.1222 0.0927257 27.4321 1.80815 30.5277 4.84492C29.3847 5.9808 28.2179 7.07033 27.0988 8.20622C25.3605 6.67625 23.265 5.49399 20.9791 5.07673C17.5978 4.38129 13.9545 5.00719 11.1209 6.88488C8.02534 8.8553 5.92989 12.1934 5.47746 15.7634C4.97741 19.2869 6.00132 22.996 8.35871 25.7314C10.6209 28.3972 14.0736 30.0663 17.6454 30.1822C20.9791 30.3677 24.4556 29.3709 26.8845 27.0991C28.7894 25.4996 29.6705 23.0655 29.9562 20.701C26.0034 20.701 22.0506 20.7242 18.0978 20.701V15.9256H34.7424C35.5997 21.0487 34.3614 26.8209 30.361 30.4836C27.6941 33.0799 24.0032 34.6099 20.2409 34.9112C16.5977 35.2589 12.8354 34.5867 9.59694 32.8712C5.71558 30.8545 2.62002 27.4468 1.09605 23.4364C-0.332675 19.7506 -0.356487 15.5779 0.976986 11.8689C2.1914 8.4844 4.52498 5.49399 7.52529 3.40767C10.4065 1.34452 13.9069 0.208633 17.4787 0Z" fill="#B8BCC2"/>
</svg>
