<svg width="23" height="23" viewBox="0 0 23 23" fill="none" xmlns="http://www.w3.org/2000/svg">
<path d="M9.25885 0.209934C12.3753 -0.381713 15.7515 0.280932 18.3249 2.15054C20.6622 3.80715 22.2913 6.4104 22.7871 9.2503C23.4245 12.5399 22.6218 16.1371 20.497 18.7403C18.2068 21.6512 14.4529 23.2132 10.7935 22.9765C7.44092 22.7872 4.18281 21.1069 2.19961 18.3617C-0.0432917 15.3324 -0.586311 11.1672 0.641382 7.61736C1.86908 3.80715 5.33967 0.896245 9.25885 0.209934ZM9.96713 4.70645C8.69222 5.03777 7.51174 5.77142 6.6618 6.81272C4.37168 9.55796 4.51334 14.0308 7.03956 16.5867C8.47974 18.054 10.6518 18.7403 12.6586 18.338C14.5238 18.0067 16.1528 16.7524 17.05 15.0958C18.6082 12.2795 18.1596 8.39833 15.7751 6.1974C14.2405 4.77745 11.9975 4.1858 9.96713 4.70645Z" fill="#B8BCC2"/>
</svg>
